<svg xmlns="http://www.w3.org/2000/svg" viewBox="0 0 240 48" fill="none">
  <!-- Icon: heart with chat bubble -->
  <g transform="translate(0, 4)">
    <!-- Heart shape -->
    <path d="M20 36l-1.45-1.32C11.4 28.16 6 23.22 6 17.2 6 12.26 9.94 8.4 14.8 8.4c2.74 0 5.37 1.3 7.2 3.34C23.83 9.7 26.46 8.4 29.2 8.4 34.06 8.4 38 12.26 38 17.2c0 6.02-5.4 10.96-12.55 17.48L24 36h-4z" fill="#65a30d"/>
    <!-- Chat bubble overlay -->
    <rect x="12" y="16" width="20" height="12" rx="4" fill="white" opacity="0.9"/>
    <!-- Chat dots -->
    <circle cx="18" cy="22" r="1.5" fill="#65a30d"/>
    <circle cx="22" cy="22" r="1.5" fill="#65a30d"/>
    <circle cx="26" cy="22" r="1.5" fill="#65a30d"/>
  </g>
  <!-- Wordmark -->
  <text x="48" y="33" font-family="system-ui, -apple-system, sans-serif" font-size="24" font-weight="700" fill="#1e293b">Health</text>
  <text x="120" y="33" font-family="system-ui, -apple-system, sans-serif" font-size="24" font-weight="700" fill="#65a30d">Chat</text>
  <text x="168" y="33" font-family="system-ui, -apple-system, sans-serif" font-size="24" font-weight="400" fill="#64748b">AI</text>
</svg>
